<mxfile host="app.diagrams.net" modified="2024-04-09T23:41:33.566Z" agent="Mozilla/5.0 (Windows NT 10.0; Win64; x64) AppleWebKit/537.36 (KHTML, like Gecko) Chrome/122.0.0.0 Safari/537.36 Edg/122.0.0.0" etag="8uBA_Kh5qUnnnn-rtvww" version="24.2.3" type="github">
  <diagram name="Page-1" id="A8W0ZlJkRZm1EOQpJBz_">
    <mxGraphModel dx="1339" dy="879" grid="1" gridSize="10" guides="1" tooltips="1" connect="1" arrows="1" fold="1" page="1" pageScale="1" pageWidth="850" pageHeight="1100" math="0" shadow="0">
      <root>
        <mxCell id="0" />
        <mxCell id="1" parent="0" />
        <mxCell id="_lKrGzHT6yuWIF_zMZOo-31" value="" style="endArrow=none;html=1;rounded=0;entryX=0.5;entryY=1;entryDx=0;entryDy=0;exitX=0.51;exitY=0.078;exitDx=0;exitDy=0;strokeWidth=3;dashed=1;dashPattern=1 1;strokeColor=#1ba0e0;exitPerimeter=0;" parent="1" source="9nzjCH3Tve30hIbmqved-3" target="uq200lhuQBNym-ZLv9r4-2" edge="1">
          <mxGeometry width="50" height="50" relative="1" as="geometry">
            <mxPoint x="162.68" y="306.59000000000003" as="sourcePoint" />
            <mxPoint x="236.14" y="180" as="targetPoint" />
          </mxGeometry>
        </mxCell>
        <mxCell id="_lKrGzHT6yuWIF_zMZOo-32" value="" style="endArrow=none;html=1;rounded=0;entryX=0.5;entryY=1;entryDx=0;entryDy=0;exitX=0.488;exitY=0.052;exitDx=0;exitDy=0;strokeWidth=3;dashed=1;dashPattern=1 1;strokeColor=#1ba0e0;exitPerimeter=0;" parent="1" source="GWw4KoO9vn4Ngn3BBy9A-8" target="uq200lhuQBNym-ZLv9r4-2" edge="1">
          <mxGeometry width="50" height="50" relative="1" as="geometry">
            <mxPoint x="374.4699999999999" y="305.08000000000015" as="sourcePoint" />
            <mxPoint x="278.75" y="172.84" as="targetPoint" />
          </mxGeometry>
        </mxCell>
        <mxCell id="_lKrGzHT6yuWIF_zMZOo-35" value="" style="endArrow=none;html=1;rounded=0;entryX=0.5;entryY=1;entryDx=0;entryDy=0;strokeWidth=3;dashed=1;dashPattern=1 1;exitX=0.452;exitY=0.046;exitDx=0;exitDy=0;strokeColor=#1ba0e0;exitPerimeter=0;" parent="1" source="GWw4KoO9vn4Ngn3BBy9A-16" target="uq200lhuQBNym-ZLv9r4-2" edge="1">
          <mxGeometry width="50" height="50" relative="1" as="geometry">
            <mxPoint x="550.0099999999999" y="307.2800000000001" as="sourcePoint" />
            <mxPoint x="243.14" y="185" as="targetPoint" />
          </mxGeometry>
        </mxCell>
        <mxCell id="_lKrGzHT6yuWIF_zMZOo-36" value="" style="endArrow=none;html=1;rounded=0;entryX=0.5;entryY=1;entryDx=0;entryDy=0;strokeWidth=3;dashed=1;dashPattern=1 1;strokeColor=#d80073;" parent="1" target="siB9gwOaP5ev9PkQdLU9-108" edge="1">
          <mxGeometry width="50" height="50" relative="1" as="geometry">
            <mxPoint x="196.14" y="310" as="sourcePoint" />
            <mxPoint x="458.75" y="190" as="targetPoint" />
          </mxGeometry>
        </mxCell>
        <mxCell id="_lKrGzHT6yuWIF_zMZOo-37" value="" style="endArrow=none;html=1;rounded=0;strokeWidth=3;dashed=1;dashPattern=1 1;strokeColor=#d80073;entryX=0.5;entryY=1;entryDx=0;entryDy=0;" parent="1" source="GWw4KoO9vn4Ngn3BBy9A-8" target="siB9gwOaP5ev9PkQdLU9-108" edge="1">
          <mxGeometry width="50" height="50" relative="1" as="geometry">
            <mxPoint x="375.3699999999999" y="305.7700000000001" as="sourcePoint" />
            <mxPoint x="480.14" y="200" as="targetPoint" />
          </mxGeometry>
        </mxCell>
        <mxCell id="_lKrGzHT6yuWIF_zMZOo-38" value="" style="endArrow=none;html=1;rounded=0;strokeWidth=3;dashed=1;dashPattern=1 1;strokeColor=#d80073;exitX=0.456;exitY=0.027;exitDx=0;exitDy=0;entryX=0.5;entryY=1;entryDx=0;entryDy=0;exitPerimeter=0;" parent="1" source="GWw4KoO9vn4Ngn3BBy9A-16" target="siB9gwOaP5ev9PkQdLU9-108" edge="1">
          <mxGeometry width="50" height="50" relative="1" as="geometry">
            <mxPoint x="554.6899999999999" y="307.7900000000002" as="sourcePoint" />
            <mxPoint x="466.14" y="180" as="targetPoint" />
          </mxGeometry>
        </mxCell>
        <mxCell id="_lKrGzHT6yuWIF_zMZOo-39" value="x16" style="text;html=1;align=center;verticalAlign=middle;resizable=0;points=[];autosize=1;strokeColor=none;fillColor=none;fontFamily=Helvetica;fontSize=15;fontColor=default;labelBackgroundColor=default;" parent="1" vertex="1">
          <mxGeometry x="140.00000000000006" y="284.96000000000004" width="50" height="30" as="geometry" />
        </mxCell>
        <mxCell id="9nzjCH3Tve30hIbmqved-83" value="" style="endArrow=none;html=1;rounded=0;strokeWidth=3;dashed=1;dashPattern=1 1;strokeColor=#3700CC;entryX=0.5;entryY=1;entryDx=0;entryDy=0;fillColor=#6a00ff;exitX=0.45;exitY=0.02;exitDx=0;exitDy=0;exitPerimeter=0;" parent="1" source="GWw4KoO9vn4Ngn3BBy9A-16" target="9nzjCH3Tve30hIbmqved-79" edge="1">
          <mxGeometry width="50" height="50" relative="1" as="geometry">
            <mxPoint x="552.5299999999999" y="306.7700000000001" as="sourcePoint" />
            <mxPoint x="596.6" y="175" as="targetPoint" />
          </mxGeometry>
        </mxCell>
        <mxCell id="9nzjCH3Tve30hIbmqved-84" value="" style="endArrow=none;html=1;rounded=0;strokeWidth=3;dashed=1;dashPattern=1 1;strokeColor=#3700CC;exitX=0.49;exitY=-0.005;exitDx=0;exitDy=0;entryX=0.5;entryY=1;entryDx=0;entryDy=0;fillColor=#6a00ff;exitPerimeter=0;" parent="1" source="GWw4KoO9vn4Ngn3BBy9A-8" target="9nzjCH3Tve30hIbmqved-79" edge="1">
          <mxGeometry width="50" height="50" relative="1" as="geometry">
            <mxPoint x="374.8299999999999" y="306.46000000000015" as="sourcePoint" />
            <mxPoint x="596.6" y="175" as="targetPoint" />
          </mxGeometry>
        </mxCell>
        <mxCell id="9nzjCH3Tve30hIbmqved-85" value="" style="endArrow=none;html=1;rounded=0;entryX=0.463;entryY=1.005;entryDx=0;entryDy=0;strokeWidth=3;dashed=1;dashPattern=1 1;strokeColor=#3700CC;exitX=0.539;exitY=-0.008;exitDx=0;exitDy=0;fillColor=#6a00ff;entryPerimeter=0;exitPerimeter=0;" parent="1" source="9nzjCH3Tve30hIbmqved-3" target="9nzjCH3Tve30hIbmqved-79" edge="1">
          <mxGeometry width="50" height="50" relative="1" as="geometry">
            <mxPoint x="162.68" y="306.59000000000003" as="sourcePoint" />
            <mxPoint x="596.6" y="175" as="targetPoint" />
          </mxGeometry>
        </mxCell>
        <mxCell id="9nzjCH3Tve30hIbmqved-144" value="" style="endArrow=none;html=1;rounded=0;strokeWidth=3;dashed=1;dashPattern=1 1;strokeColor=#6D1F00;entryX=0.5;entryY=1;entryDx=0;entryDy=0;fillColor=#a0522d;exitX=0.49;exitY=0.078;exitDx=0;exitDy=0;exitPerimeter=0;" parent="1" edge="1">
          <mxGeometry width="50" height="50" relative="1" as="geometry">
            <mxPoint x="726.17" y="311" as="sourcePoint" />
            <mxPoint x="726.17" y="175" as="targetPoint" />
          </mxGeometry>
        </mxCell>
        <mxCell id="9nzjCH3Tve30hIbmqved-145" value="" style="endArrow=none;html=1;rounded=0;strokeWidth=3;dashed=1;dashPattern=1 1;strokeColor=#6D1F00;exitX=0.443;exitY=0.027;exitDx=0;exitDy=0;entryX=0.5;entryY=1;entryDx=0;entryDy=0;fillColor=#a0522d;exitPerimeter=0;" parent="1" source="GWw4KoO9vn4Ngn3BBy9A-16" edge="1">
          <mxGeometry width="50" height="50" relative="1" as="geometry">
            <mxPoint x="551.8099999999998" y="307.19000000000017" as="sourcePoint" />
            <mxPoint x="726.17" y="175" as="targetPoint" />
          </mxGeometry>
        </mxCell>
        <mxCell id="9nzjCH3Tve30hIbmqved-146" value="" style="endArrow=none;html=1;rounded=0;entryX=0.622;entryY=1.027;entryDx=0;entryDy=0;strokeWidth=3;dashed=1;dashPattern=1 1;strokeColor=#6D1F00;exitX=0.488;exitY=0.014;exitDx=0;exitDy=0;fillColor=#a0522d;entryPerimeter=0;exitPerimeter=0;" parent="1" source="GWw4KoO9vn4Ngn3BBy9A-8" target="9nzjCH3Tve30hIbmqved-100" edge="1">
          <mxGeometry width="50" height="50" relative="1" as="geometry">
            <mxPoint x="373.92999999999995" y="306.19000000000017" as="sourcePoint" />
            <mxPoint x="723.17" y="175" as="targetPoint" />
          </mxGeometry>
        </mxCell>
        <mxCell id="9nzjCH3Tve30hIbmqved-147" value="" style="endArrow=none;html=1;rounded=0;entryX=0.5;entryY=1;entryDx=0;entryDy=0;strokeWidth=3;dashed=1;dashPattern=1 1;exitX=0.499;exitY=0.014;exitDx=0;exitDy=0;strokeColor=#1ba0e0;exitPerimeter=0;" parent="1" source="GWw4KoO9vn4Ngn3BBy9A-24" target="uq200lhuQBNym-ZLv9r4-2" edge="1">
          <mxGeometry width="50" height="50" relative="1" as="geometry">
            <mxPoint x="725.6899999999999" y="306.7700000000001" as="sourcePoint" />
            <mxPoint x="215.84999999999997" y="170" as="targetPoint" />
          </mxGeometry>
        </mxCell>
        <mxCell id="9nzjCH3Tve30hIbmqved-149" value="" style="endArrow=none;html=1;rounded=0;strokeWidth=3;dashed=1;dashPattern=1 1;strokeColor=#d80073;exitX=0.492;exitY=0.04;exitDx=0;exitDy=0;entryX=0.5;entryY=1;entryDx=0;entryDy=0;exitPerimeter=0;" parent="1" source="GWw4KoO9vn4Ngn3BBy9A-24" target="siB9gwOaP5ev9PkQdLU9-108" edge="1">
          <mxGeometry width="50" height="50" relative="1" as="geometry">
            <mxPoint x="726.2299999999999" y="304.6400000000001" as="sourcePoint" />
            <mxPoint x="383.14" y="185" as="targetPoint" />
          </mxGeometry>
        </mxCell>
        <mxCell id="9nzjCH3Tve30hIbmqved-162" value="x4" style="text;html=1;align=center;verticalAlign=middle;resizable=0;points=[];autosize=1;strokeColor=none;fillColor=none;fontFamily=Helvetica;fontSize=15;fontColor=default;labelBackgroundColor=default;" parent="1" vertex="1">
          <mxGeometry x="157.29000000000005" y="230" width="40" height="30" as="geometry" />
        </mxCell>
        <mxCell id="uq200lhuQBNym-ZLv9r4-198" value="x16" style="text;html=1;align=center;verticalAlign=middle;resizable=0;points=[];autosize=1;strokeColor=none;fillColor=none;fontFamily=Helvetica;fontSize=15;fontColor=default;labelBackgroundColor=default;" parent="1" vertex="1">
          <mxGeometry x="140.00000000000006" y="171.46" width="50" height="30" as="geometry" />
        </mxCell>
        <mxCell id="9nzjCH3Tve30hIbmqved-164" value="" style="endArrow=none;html=1;rounded=0;strokeWidth=3;dashed=1;dashPattern=1 1;strokeColor=#3700CC;entryX=0.5;entryY=1;entryDx=0;entryDy=0;fillColor=#6a00ff;exitX=0.49;exitY=0.046;exitDx=0;exitDy=0;exitPerimeter=0;" parent="1" source="GWw4KoO9vn4Ngn3BBy9A-24" target="9nzjCH3Tve30hIbmqved-79" edge="1">
          <mxGeometry width="50" height="50" relative="1" as="geometry">
            <mxPoint x="723.17" y="305.30000000000007" as="sourcePoint" />
            <mxPoint x="563.14" y="185" as="targetPoint" />
          </mxGeometry>
        </mxCell>
        <mxCell id="9nzjCH3Tve30hIbmqved-165" value="" style="endArrow=none;html=1;rounded=0;entryX=0.63;entryY=1.02;entryDx=0;entryDy=0;strokeWidth=3;dashed=1;dashPattern=1 1;strokeColor=#6D1F00;exitX=0;exitY=0.5;exitDx=0;exitDy=0;fillColor=#a0522d;entryPerimeter=0;" parent="1" source="siB9gwOaP5ev9PkQdLU9-89" target="9nzjCH3Tve30hIbmqved-100" edge="1">
          <mxGeometry width="50" height="50" relative="1" as="geometry">
            <mxPoint x="383.14" y="321" as="sourcePoint" />
            <mxPoint x="733.17" y="185" as="targetPoint" />
          </mxGeometry>
        </mxCell>
        <mxCell id="siB9gwOaP5ev9PkQdLU9-84" value="Multi-Logical Device (MLD)" style="text;html=1;align=center;verticalAlign=middle;resizable=0;points=[];autosize=1;strokeColor=none;fillColor=none;fontFamily=Helvetica;fontSize=13;fontColor=default;labelBackgroundColor=default;" parent="1" vertex="1">
          <mxGeometry x="103.43000000000005" y="397.96000000000004" width="180" height="30" as="geometry" />
        </mxCell>
        <mxCell id="siB9gwOaP5ev9PkQdLU9-89" value="&lt;div style=&quot;&quot;&gt;&lt;br&gt;&lt;/div&gt;" style="rounded=1;whiteSpace=wrap;html=1;strokeWidth=1;fontSize=10;rotation=90;align=right;verticalAlign=middle;horizontal=0;labelPosition=left;verticalLabelPosition=middle;fillColor=#d5e8d4;strokeColor=#82b366;perimeterSpacing=0;imageWidth=24;arcSize=6;" parent="1" vertex="1">
          <mxGeometry x="150.42999999999995" y="314.9600000000001" width="86" height="80" as="geometry" />
        </mxCell>
        <mxCell id="siB9gwOaP5ev9PkQdLU9-95" value="" style="rounded=0;whiteSpace=wrap;html=1;fillColor=#1ba1e2;strokeColor=none;shadow=0;fontColor=#ffffff;textShadow=0;" parent="1" vertex="1">
          <mxGeometry x="158.42999999999995" y="336" width="70" height="10" as="geometry" />
        </mxCell>
        <mxCell id="siB9gwOaP5ev9PkQdLU9-96" value="" style="rounded=0;whiteSpace=wrap;html=1;fillColor=#1ba1e2;strokeColor=none;shadow=0;fontColor=#ffffff;textShadow=0;" parent="1" vertex="1">
          <mxGeometry x="158.42999999999995" y="347" width="70" height="10" as="geometry" />
        </mxCell>
        <mxCell id="siB9gwOaP5ev9PkQdLU9-97" value="" style="rounded=0;whiteSpace=wrap;html=1;fillColor=#1ba1e2;strokeColor=none;shadow=0;fontColor=#ffffff;textShadow=0;" parent="1" vertex="1">
          <mxGeometry x="158.42999999999995" y="358" width="70" height="10" as="geometry" />
        </mxCell>
        <mxCell id="siB9gwOaP5ev9PkQdLU9-98" value="" style="rounded=0;whiteSpace=wrap;html=1;fillColor=#d80073;strokeColor=none;shadow=0;textShadow=0;" parent="1" vertex="1">
          <mxGeometry x="158.42999999999995" y="369" width="70" height="10" as="geometry" />
        </mxCell>
        <mxCell id="siB9gwOaP5ev9PkQdLU9-99" value="" style="rounded=0;whiteSpace=wrap;html=1;fillColor=#d80073;strokeColor=none;shadow=0;fontColor=#ffffff;textShadow=0;" parent="1" vertex="1">
          <mxGeometry x="158.42999999999995" y="379.9994117647059" width="70" height="10" as="geometry" />
        </mxCell>
        <mxCell id="9nzjCH3Tve30hIbmqved-3" value="&lt;font style=&quot;font-size: 13px;&quot;&gt;CXL Type 2&lt;/font&gt;" style="text;html=1;align=center;verticalAlign=middle;resizable=0;points=[];autosize=1;strokeColor=none;fillColor=none;labelBackgroundColor=none;fontColor=#000000;fontSize=9;" parent="1" vertex="1">
          <mxGeometry x="148.43" y="309.43" width="90" height="30" as="geometry" />
        </mxCell>
        <mxCell id="GWw4KoO9vn4Ngn3BBy9A-2" value="&lt;div style=&quot;&quot;&gt;&lt;br&gt;&lt;/div&gt;" style="rounded=1;whiteSpace=wrap;html=1;strokeWidth=1;fontSize=10;rotation=90;align=right;verticalAlign=middle;horizontal=0;labelPosition=left;verticalLabelPosition=middle;fillColor=#d5e8d4;strokeColor=#82b366;perimeterSpacing=0;imageWidth=24;arcSize=6;" parent="1" vertex="1">
          <mxGeometry x="333.14" y="314.9600000000001" width="86" height="80" as="geometry" />
        </mxCell>
        <mxCell id="GWw4KoO9vn4Ngn3BBy9A-3" value="" style="rounded=0;whiteSpace=wrap;html=1;fillColor=#d80073;strokeColor=none;shadow=0;fontColor=#ffffff;textShadow=0;" parent="1" vertex="1">
          <mxGeometry x="341.13999999999993" y="336" width="70" height="10" as="geometry" />
        </mxCell>
        <mxCell id="GWw4KoO9vn4Ngn3BBy9A-4" value="" style="rounded=0;whiteSpace=wrap;html=1;fillColor=#1ba1e2;strokeColor=none;shadow=0;fontColor=#ffffff;textShadow=0;" parent="1" vertex="1">
          <mxGeometry x="341.13999999999993" y="347" width="70" height="10" as="geometry" />
        </mxCell>
        <mxCell id="GWw4KoO9vn4Ngn3BBy9A-5" value="" style="rounded=0;whiteSpace=wrap;html=1;fillColor=#1ba1e2;strokeColor=none;shadow=0;fontColor=#ffffff;textShadow=0;" parent="1" vertex="1">
          <mxGeometry x="341.13999999999993" y="358" width="70" height="10" as="geometry" />
        </mxCell>
        <mxCell id="GWw4KoO9vn4Ngn3BBy9A-6" value="" style="rounded=0;whiteSpace=wrap;html=1;fillColor=#6a00ff;strokeColor=none;shadow=0;textShadow=0;fontColor=#ffffff;" parent="1" vertex="1">
          <mxGeometry x="341.13999999999993" y="369" width="70" height="10" as="geometry" />
        </mxCell>
        <mxCell id="GWw4KoO9vn4Ngn3BBy9A-7" value="" style="rounded=0;whiteSpace=wrap;html=1;fillColor=#6a00ff;strokeColor=none;shadow=0;fontColor=#ffffff;textShadow=0;" parent="1" vertex="1">
          <mxGeometry x="341.13999999999993" y="379.9994117647059" width="70" height="10" as="geometry" />
        </mxCell>
        <mxCell id="GWw4KoO9vn4Ngn3BBy9A-8" value="&lt;font style=&quot;font-size: 13px;&quot;&gt;CXL Type 2&lt;/font&gt;" style="text;html=1;align=center;verticalAlign=middle;resizable=0;points=[];autosize=1;strokeColor=none;fillColor=none;labelBackgroundColor=none;fontColor=#000000;fontSize=9;" parent="1" vertex="1">
          <mxGeometry x="331.14" y="309.43" width="90" height="30" as="geometry" />
        </mxCell>
        <mxCell id="GWw4KoO9vn4Ngn3BBy9A-9" value="MLD" style="text;html=1;align=center;verticalAlign=middle;resizable=0;points=[];autosize=1;strokeColor=none;fillColor=none;fontFamily=Helvetica;fontSize=13;fontColor=default;labelBackgroundColor=default;" parent="1" vertex="1">
          <mxGeometry x="351.14000000000004" y="397.96000000000004" width="50" height="30" as="geometry" />
        </mxCell>
        <mxCell id="GWw4KoO9vn4Ngn3BBy9A-10" value="&lt;div style=&quot;&quot;&gt;&lt;br&gt;&lt;/div&gt;" style="rounded=1;whiteSpace=wrap;html=1;strokeWidth=1;fontSize=10;rotation=90;align=right;verticalAlign=middle;horizontal=0;labelPosition=left;verticalLabelPosition=middle;fillColor=#d5e8d4;strokeColor=#82b366;perimeterSpacing=0;imageWidth=24;arcSize=6;" parent="1" vertex="1">
          <mxGeometry x="513.14" y="314.9600000000001" width="86" height="80" as="geometry" />
        </mxCell>
        <mxCell id="GWw4KoO9vn4Ngn3BBy9A-11" value="" style="rounded=0;whiteSpace=wrap;html=1;fillColor=#d80073;strokeColor=none;shadow=0;fontColor=#ffffff;textShadow=0;" parent="1" vertex="1">
          <mxGeometry x="521.14" y="336" width="70" height="10" as="geometry" />
        </mxCell>
        <mxCell id="GWw4KoO9vn4Ngn3BBy9A-12" value="" style="rounded=0;whiteSpace=wrap;html=1;fillColor=#6a00ff;strokeColor=none;shadow=0;fontColor=#ffffff;textShadow=0;" parent="1" vertex="1">
          <mxGeometry x="521.14" y="347" width="70" height="10" as="geometry" />
        </mxCell>
        <mxCell id="GWw4KoO9vn4Ngn3BBy9A-13" value="" style="rounded=0;whiteSpace=wrap;html=1;fillColor=#1ba1e2;strokeColor=none;shadow=0;fontColor=#ffffff;textShadow=0;" parent="1" vertex="1">
          <mxGeometry x="521.14" y="358" width="70" height="10" as="geometry" />
        </mxCell>
        <mxCell id="GWw4KoO9vn4Ngn3BBy9A-14" value="" style="rounded=0;whiteSpace=wrap;html=1;fillColor=#a20025;strokeColor=none;shadow=0;textShadow=0;fontColor=#ffffff;" parent="1" vertex="1">
          <mxGeometry x="521.14" y="369" width="70" height="10" as="geometry" />
        </mxCell>
        <mxCell id="GWw4KoO9vn4Ngn3BBy9A-15" value="" style="rounded=0;whiteSpace=wrap;html=1;fillColor=#fff2cc;strokeColor=#d6b656;shadow=0;textShadow=0;strokeWidth=0.25;glass=0;fillStyle=auto;gradientColor=none;" parent="1" vertex="1">
          <mxGeometry x="521.14" y="381" width="70" height="8" as="geometry" />
        </mxCell>
        <mxCell id="GWw4KoO9vn4Ngn3BBy9A-16" value="&lt;font style=&quot;font-size: 13px;&quot;&gt;CXL Type 2&lt;/font&gt;" style="text;html=1;align=center;verticalAlign=middle;resizable=0;points=[];autosize=1;strokeColor=none;fillColor=none;labelBackgroundColor=none;fontColor=#000000;fontSize=9;" parent="1" vertex="1">
          <mxGeometry x="511.14" y="309.43" width="90" height="30" as="geometry" />
        </mxCell>
        <mxCell id="GWw4KoO9vn4Ngn3BBy9A-17" value="MLD" style="text;html=1;align=center;verticalAlign=middle;resizable=0;points=[];autosize=1;strokeColor=none;fillColor=none;fontFamily=Helvetica;fontSize=13;fontColor=default;labelBackgroundColor=default;" parent="1" vertex="1">
          <mxGeometry x="531.14" y="397.96000000000004" width="50" height="30" as="geometry" />
        </mxCell>
        <mxCell id="GWw4KoO9vn4Ngn3BBy9A-18" value="&lt;div style=&quot;&quot;&gt;&lt;br&gt;&lt;/div&gt;" style="rounded=1;whiteSpace=wrap;html=1;strokeWidth=1;fontSize=10;rotation=90;align=right;verticalAlign=middle;horizontal=0;labelPosition=left;verticalLabelPosition=middle;fillColor=#d5e8d4;strokeColor=#82b366;perimeterSpacing=0;imageWidth=24;arcSize=6;" parent="1" vertex="1">
          <mxGeometry x="683.14" y="314.9600000000001" width="86" height="80" as="geometry" />
        </mxCell>
        <mxCell id="GWw4KoO9vn4Ngn3BBy9A-19" value="" style="rounded=0;whiteSpace=wrap;html=1;fillColor=#d80073;strokeColor=none;shadow=0;fontColor=#ffffff;textShadow=0;" parent="1" vertex="1">
          <mxGeometry x="691.14" y="336" width="70" height="10" as="geometry" />
        </mxCell>
        <mxCell id="GWw4KoO9vn4Ngn3BBy9A-20" value="" style="rounded=0;whiteSpace=wrap;html=1;fillColor=#a20025;strokeColor=none;shadow=0;fontColor=#ffffff;textShadow=0;" parent="1" vertex="1">
          <mxGeometry x="691.14" y="347" width="70" height="10" as="geometry" />
        </mxCell>
        <mxCell id="GWw4KoO9vn4Ngn3BBy9A-21" value="" style="rounded=0;whiteSpace=wrap;html=1;fillColor=#a20025;strokeColor=none;shadow=0;fontColor=#ffffff;textShadow=0;" parent="1" vertex="1">
          <mxGeometry x="691.14" y="358" width="70" height="10" as="geometry" />
        </mxCell>
        <mxCell id="GWw4KoO9vn4Ngn3BBy9A-22" value="" style="rounded=0;whiteSpace=wrap;html=1;fillColor=#fff2cc;strokeColor=#d6b656;shadow=0;textShadow=0;glass=0;fillStyle=auto;strokeWidth=0.25;gradientColor=none;" parent="1" vertex="1">
          <mxGeometry x="691.14" y="370" width="70" height="8" as="geometry" />
        </mxCell>
        <mxCell id="GWw4KoO9vn4Ngn3BBy9A-23" value="" style="rounded=0;whiteSpace=wrap;html=1;fillColor=#fff2cc;strokeColor=#d6b656;shadow=0;textShadow=0;glass=0;fillStyle=auto;strokeWidth=0.25;gradientColor=none;" parent="1" vertex="1">
          <mxGeometry x="691.14" y="380" width="70" height="8" as="geometry" />
        </mxCell>
        <mxCell id="GWw4KoO9vn4Ngn3BBy9A-24" value="&lt;font style=&quot;font-size: 13px;&quot;&gt;CXL Type 2&lt;/font&gt;" style="text;html=1;align=center;verticalAlign=middle;resizable=0;points=[];autosize=1;strokeColor=none;fillColor=none;labelBackgroundColor=none;fontColor=#000000;fontSize=9;" parent="1" vertex="1">
          <mxGeometry x="681.14" y="309.43" width="90" height="30" as="geometry" />
        </mxCell>
        <mxCell id="GWw4KoO9vn4Ngn3BBy9A-25" value="MLD" style="text;html=1;align=center;verticalAlign=middle;resizable=0;points=[];autosize=1;strokeColor=none;fillColor=none;fontFamily=Helvetica;fontSize=13;fontColor=default;labelBackgroundColor=default;" parent="1" vertex="1">
          <mxGeometry x="701.14" y="397.96000000000004" width="50" height="30" as="geometry" />
        </mxCell>
        <mxCell id="RVAUaGwnfIUGjfLfYw1A-181" value="DRAM" style="rounded=0;whiteSpace=wrap;html=1;fillColor=#fff2cc;strokeColor=#d6b656;shadow=0;textShadow=0;strokeWidth=0.25;rotation=-90;glass=0;fillStyle=auto;gradientColor=none;" parent="1" vertex="1">
          <mxGeometry x="103.43000000000005" y="122.5" width="70" height="20" as="geometry" />
        </mxCell>
        <mxCell id="uq200lhuQBNym-ZLv9r4-11" value="" style="group;fillColor=default;gradientColor=none;strokeColor=none;" parent="1" connectable="0" vertex="1">
          <mxGeometry x="150.93105263157895" y="90" width="84.99789473684211" height="85" as="geometry" />
        </mxCell>
        <mxCell id="uq200lhuQBNym-ZLv9r4-2" value="" style="rounded=1;whiteSpace=wrap;html=1;arcSize=7;fillColor=#1ba1e2;strokeColor=#006EAF;fontColor=#ffffff;" parent="uq200lhuQBNym-ZLv9r4-11" vertex="1">
          <mxGeometry width="84.99789473684211" height="85" as="geometry" />
        </mxCell>
        <mxCell id="uq200lhuQBNym-ZLv9r4-3" value="&lt;font style=&quot;font-size: 20px;&quot;&gt;CPU&lt;/font&gt;" style="rounded=1;whiteSpace=wrap;html=1;fillColor=#cce5ff;strokeColor=#146994;shadow=0;" parent="uq200lhuQBNym-ZLv9r4-11" vertex="1">
          <mxGeometry x="7.083157894736843" y="7.083333333333334" width="70.83157894736843" height="70.83333333333334" as="geometry" />
        </mxCell>
        <mxCell id="RVAUaGwnfIUGjfLfYw1A-182" value="DRAM" style="rounded=0;whiteSpace=wrap;html=1;fillColor=#fff2cc;strokeColor=#d6b656;shadow=0;textShadow=0;strokeWidth=0.25;rotation=-90;glass=0;fillStyle=auto;gradientColor=none;" parent="1" vertex="1">
          <mxGeometry x="214.14000000000004" y="123" width="70" height="20" as="geometry" />
        </mxCell>
        <mxCell id="siB9gwOaP5ev9PkQdLU9-107" value="" style="group;fillColor=default;gradientColor=none;strokeColor=none;" parent="1" connectable="0" vertex="1">
          <mxGeometry x="330.93105263157895" y="90" width="84.99789473684211" height="85" as="geometry" />
        </mxCell>
        <mxCell id="siB9gwOaP5ev9PkQdLU9-108" value="" style="rounded=1;whiteSpace=wrap;html=1;arcSize=7;fillColor=#d80073;strokeColor=#A50040;fontColor=#ffffff;" parent="siB9gwOaP5ev9PkQdLU9-107" vertex="1">
          <mxGeometry width="84.99789473684211" height="85" as="geometry" />
        </mxCell>
        <mxCell id="siB9gwOaP5ev9PkQdLU9-109" value="&lt;font style=&quot;font-size: 20px;&quot;&gt;CPU&lt;/font&gt;" style="rounded=1;whiteSpace=wrap;html=1;fillColor=#f8cecc;strokeColor=#b85450;shadow=0;" parent="siB9gwOaP5ev9PkQdLU9-107" vertex="1">
          <mxGeometry x="7.083157894736843" y="7.083333333333334" width="70.83157894736843" height="70.83333333333334" as="geometry" />
        </mxCell>
        <mxCell id="9nzjCH3Tve30hIbmqved-78" value="" style="group;fillColor=default;gradientColor=none;strokeColor=none;" parent="1" connectable="0" vertex="1">
          <mxGeometry x="510.93105263157895" y="90" width="84.99789473684211" height="85" as="geometry" />
        </mxCell>
        <mxCell id="9nzjCH3Tve30hIbmqved-79" value="" style="rounded=1;whiteSpace=wrap;html=1;arcSize=7;fillColor=#6a00ff;strokeColor=#3700CC;fontColor=#ffffff;" parent="9nzjCH3Tve30hIbmqved-78" vertex="1">
          <mxGeometry width="84.99789473684211" height="85" as="geometry" />
        </mxCell>
        <mxCell id="9nzjCH3Tve30hIbmqved-80" value="&lt;font style=&quot;font-size: 20px;&quot;&gt;CPU&lt;/font&gt;" style="rounded=1;whiteSpace=wrap;html=1;fillColor=#e1d5e7;strokeColor=#9673a6;shadow=0;" parent="9nzjCH3Tve30hIbmqved-78" vertex="1">
          <mxGeometry x="7.083157894736843" y="7.083333333333334" width="70.83157894736843" height="70.83333333333334" as="geometry" />
        </mxCell>
        <mxCell id="9nzjCH3Tve30hIbmqved-99" value="" style="group;fillColor=default;gradientColor=none;strokeColor=none;" parent="1" connectable="0" vertex="1">
          <mxGeometry x="670.931052631579" y="90" width="84.99789473684211" height="85" as="geometry" />
        </mxCell>
        <mxCell id="9nzjCH3Tve30hIbmqved-100" value="" style="rounded=1;whiteSpace=wrap;html=1;arcSize=7;fillColor=#a0522d;strokeColor=#6D1F00;fontColor=#ffffff;" parent="9nzjCH3Tve30hIbmqved-99" vertex="1">
          <mxGeometry width="84.99789473684211" height="85" as="geometry" />
        </mxCell>
        <mxCell id="9nzjCH3Tve30hIbmqved-101" value="&lt;font style=&quot;font-size: 20px;&quot;&gt;CPU&lt;/font&gt;" style="rounded=1;whiteSpace=wrap;html=1;fillColor=#ffcc99;strokeColor=#36393d;shadow=0;" parent="9nzjCH3Tve30hIbmqved-99" vertex="1">
          <mxGeometry x="7.083157894736843" y="7.083333333333334" width="70.83157894736843" height="70.83333333333334" as="geometry" />
        </mxCell>
        <mxCell id="RVAUaGwnfIUGjfLfYw1A-185" value="DRAM" style="rounded=0;whiteSpace=wrap;html=1;fillColor=#fff2cc;strokeColor=#d6b656;shadow=0;textShadow=0;strokeWidth=0.25;rotation=-90;glass=0;fillStyle=auto;gradientColor=none;" parent="1" vertex="1">
          <mxGeometry x="283.14000000000004" y="122.5" width="70" height="20" as="geometry" />
        </mxCell>
        <mxCell id="RVAUaGwnfIUGjfLfYw1A-186" value="DRAM" style="rounded=0;whiteSpace=wrap;html=1;fillColor=#fff2cc;strokeColor=#d6b656;shadow=0;textShadow=0;strokeWidth=0.25;rotation=-90;glass=0;fillStyle=auto;gradientColor=none;" parent="1" vertex="1">
          <mxGeometry x="393.85" y="123" width="70" height="20" as="geometry" />
        </mxCell>
        <mxCell id="RVAUaGwnfIUGjfLfYw1A-187" value="DRAM" style="rounded=0;whiteSpace=wrap;html=1;fillColor=#fff2cc;strokeColor=#d6b656;shadow=0;textShadow=0;strokeWidth=0.25;rotation=-90;glass=0;fillStyle=auto;gradientColor=none;" parent="1" vertex="1">
          <mxGeometry x="463.14" y="122.5" width="70" height="20" as="geometry" />
        </mxCell>
        <mxCell id="RVAUaGwnfIUGjfLfYw1A-188" value="DRAM" style="rounded=0;whiteSpace=wrap;html=1;fillColor=#fff2cc;strokeColor=#d6b656;shadow=0;textShadow=0;strokeWidth=0.25;rotation=-90;glass=0;fillStyle=auto;gradientColor=none;" parent="1" vertex="1">
          <mxGeometry x="573.85" y="123" width="70" height="20" as="geometry" />
        </mxCell>
        <mxCell id="RVAUaGwnfIUGjfLfYw1A-189" value="DRAM" style="rounded=0;whiteSpace=wrap;html=1;fillColor=#fff2cc;strokeColor=#d6b656;shadow=0;textShadow=0;strokeWidth=0.25;rotation=-90;glass=0;fillStyle=auto;gradientColor=none;" parent="1" vertex="1">
          <mxGeometry x="623.14" y="122.5" width="70" height="20" as="geometry" />
        </mxCell>
        <mxCell id="RVAUaGwnfIUGjfLfYw1A-190" value="DRAM" style="rounded=0;whiteSpace=wrap;html=1;fillColor=#fff2cc;strokeColor=#d6b656;shadow=0;textShadow=0;strokeWidth=0.25;rotation=-90;glass=0;fillStyle=auto;gradientColor=none;" parent="1" vertex="1">
          <mxGeometry x="733.85" y="123" width="70" height="20" as="geometry" />
        </mxCell>
      </root>
    </mxGraphModel>
  </diagram>
</mxfile>
